<svg width="28" height="25" viewBox="0 0 28 25" fill="none" xmlns="http://www.w3.org/2000/svg">
<g clip-path="url(#clip0_770_728)">
<path d="M25.393 21.7296C25.393 22.0299 25.3392 22.3088 25.2319 22.5663C25.1247 22.8237 24.9746 23.049 24.7815 23.2421C24.5884 23.4244 24.3631 23.5693 24.1056 23.6765C23.8482 23.7838 23.5749 23.8374 23.2853 23.8374H13.8563C12.9659 23.8374 12.0647 23.7409 11.1529 23.5478C10.2411 23.3547 9.35626 23.0597 8.4981 22.6628C7.65075 22.2552 6.85163 21.7403 6.10068 21.1182C5.34982 20.496 4.6899 19.7612 4.12134 18.9138C3.56357 18.0556 3.1238 17.0795 2.80201 15.9854C2.48023 14.8805 2.31958 13.6522 2.31958 12.3006V0.763859H6.50294V12.3006C6.50294 13.4806 6.66395 14.4782 6.98574 15.2934C7.31832 16.1087 7.73654 16.7899 8.24071 17.3369C8.74488 17.884 9.29728 18.3131 9.89795 18.6242C10.4987 18.9353 11.0671 19.1659 11.6034 19.3161C12.1504 19.4662 12.6279 19.5628 13.0356 19.6057C13.4539 19.6379 13.7276 19.654 13.8563 19.654H21.2096V0.763904H25.393V21.7296Z" fill="black"/>
</g>
<defs>
<clipPath id="clip0_770_728">
<rect width="28" height="24" fill="white" transform="translate(0 0.403568)"/>
</clipPath>
</defs>
</svg>
