<svg width="120" height="25" viewBox="0 0 120 25" fill="none" xmlns="http://www.w3.org/2000/svg">
<g clip-path="url(#clip0_709_1042)">
<path d="M25.671 22.3261C25.671 22.6264 25.6173 22.9053 25.51 23.1628C25.4028 23.4202 25.2526 23.6455 25.0596 23.8386C24.8665 24.0209 24.6412 24.1657 24.3837 24.273C24.1262 24.3803 23.853 24.4339 23.5634 24.4339H14.1344C13.244 24.4339 12.3428 24.3374 11.431 24.1443C10.5192 23.9512 9.63433 23.6562 8.77618 23.2593C7.92883 22.8517 7.12971 22.3368 6.37875 21.7147C5.62789 21.0925 4.96798 20.3577 4.39941 19.5103C3.84164 18.6521 3.40187 17.676 3.08009 16.5818C2.75831 15.477 2.59766 14.2487 2.59766 12.8971V1.36035H6.78102V12.8971C6.78102 14.0771 6.94203 15.0747 7.26381 15.8899C7.59639 16.7052 8.01462 17.3864 8.51879 17.9334C9.02296 18.4805 9.57536 18.9096 10.176 19.2207C10.7768 19.5317 11.3452 19.7624 11.8814 19.9126C12.4285 20.0627 12.906 20.1593 13.3136 20.2022C13.732 20.2344 14.0057 20.2505 14.1344 20.2505H21.4877V1.3604H25.671V22.3261Z" fill="black"/>
<path d="M53.5719 14.7797C53.5719 16.185 53.3251 17.4775 52.8317 18.6575C52.349 19.8375 51.6788 20.8565 50.8207 21.7147C49.9625 22.5621 48.9432 23.2272 47.7632 23.7099C46.5832 24.1926 45.3015 24.4339 43.9178 24.4339H32.6223C32.3219 24.4339 32.0432 24.3803 31.7858 24.273C31.5283 24.1657 31.303 24.0209 31.11 23.8386C30.9276 23.6455 30.7825 23.4202 30.6753 23.1628C30.568 22.9053 30.5146 22.6264 30.5146 22.3261V3.46821C30.5146 3.17859 30.568 2.90503 30.6753 2.64759C30.7825 2.39014 30.9276 2.16489 31.11 1.9718C31.303 1.77872 31.5283 1.62854 31.7858 1.52127C32.0432 1.414 32.3219 1.36035 32.6223 1.36035H43.9178C45.3015 1.36035 46.5832 1.60174 47.7632 2.08445C48.9432 2.56715 49.9625 3.23755 50.8207 4.0957C51.6788 4.94313 52.349 5.96219 52.8317 7.15288C53.3251 8.33284 53.5719 9.6201 53.5719 11.0146V14.7797ZM49.3885 11.0146C49.3885 10.1993 49.2543 9.45382 48.9862 8.77803C48.7287 8.10224 48.3588 7.52834 47.8761 7.05635C47.3934 6.57364 46.8141 6.20356 46.1384 5.94612C45.4733 5.67794 44.7331 5.54385 43.9178 5.54385H34.698V20.2504H43.9178C44.7331 20.2504 45.4733 20.1217 46.1384 19.8643C46.8141 19.5961 47.3934 19.226 47.8761 18.754C48.3588 18.2713 48.7287 17.6974 48.9862 17.0324C49.2543 16.3566 49.3885 15.6057 49.3885 14.7797V11.0146Z" fill="black"/>
<path d="M81.9231 15.1015C81.9231 16.5068 81.6818 17.7993 81.1991 18.9793C80.7165 20.1593 80.0459 21.1783 79.1878 22.0365C78.3296 22.8946 77.3104 23.565 76.1303 24.0478C74.9611 24.5197 73.6848 24.7558 72.3011 24.7558H66.6373C65.2536 24.7558 63.9716 24.5197 62.7915 24.0478C61.6116 23.565 60.5926 22.8946 59.7344 22.0365C58.8763 21.1783 58.2007 20.1593 57.7073 18.9793C57.2245 17.7993 56.9829 16.5068 56.9829 15.1015V10.6928C56.9829 9.29827 57.2245 8.01106 57.7073 6.8311C58.2007 5.64042 58.8763 4.62135 59.7344 3.77392C60.5926 2.91577 61.6116 2.24533 62.7915 1.76263C63.9716 1.27992 65.2536 1.03857 66.6373 1.03857H72.3011C73.6848 1.03857 74.9611 1.27992 76.1303 1.76263C77.3104 2.24533 78.3296 2.91577 79.1878 3.77392C80.0459 4.62135 80.7165 5.64042 81.1991 6.8311C81.6818 8.01106 81.9231 9.29827 81.9231 10.6928V15.1015ZM77.7394 10.6928C77.7394 9.86679 77.6053 9.12127 77.3371 8.45621C77.0797 7.78042 76.7097 7.20656 76.227 6.73458C75.7551 6.25186 75.1812 5.88174 74.5055 5.6243C73.8404 5.35612 73.1056 5.22207 72.3011 5.22207H66.6373C65.8221 5.22207 65.0764 5.35612 64.4006 5.6243C63.7355 5.88174 63.1617 6.25186 62.679 6.73458C62.1962 7.20656 61.8209 7.78042 61.5527 8.45621C61.2953 9.12127 61.1666 9.86679 61.1666 10.6928V15.1015C61.1666 15.9275 61.2953 16.6784 61.5527 17.3542C61.8209 18.0192 62.1962 18.5931 62.679 19.0759C63.1617 19.5478 63.7355 19.9179 64.4006 20.1861C65.0764 20.4435 65.8221 20.5723 66.6373 20.5723H72.2687C73.084 20.5723 73.8242 20.4435 74.4893 20.1861C75.1651 19.9179 75.7444 19.5478 76.227 19.0759C76.7097 18.5931 77.0797 18.0192 77.3371 17.3542C77.6053 16.6784 77.7394 15.9275 77.7394 15.1015V10.6928Z" fill="black"/>
<path d="M90.3062 24.4339H86.1228V1.36035H90.3062V24.4339Z" fill="black"/>
<path d="M117.402 17.6438C117.402 18.4697 117.295 19.2153 117.08 19.8803C116.877 20.5347 116.603 21.1139 116.26 21.6181C115.917 22.1223 115.515 22.5514 115.053 22.9053C114.592 23.2593 114.115 23.549 113.621 23.7742C113.128 23.9995 112.624 24.1657 112.109 24.273C111.605 24.3803 111.127 24.4339 110.677 24.4339H94.538V20.2504H110.677C111.481 20.2504 112.103 20.0144 112.543 19.5425C112.993 19.0705 113.219 18.4376 113.219 17.6438C113.219 17.2576 113.16 16.9036 113.042 16.5818C112.924 16.26 112.752 15.9811 112.527 15.7451C112.313 15.5091 112.044 15.3268 111.723 15.198C111.412 15.0693 111.063 15.005 110.677 15.005H101.054C100.379 15.005 99.6493 14.887 98.8663 14.651C98.0832 14.4043 97.3538 14.0127 96.678 13.4764C96.013 12.9401 95.4552 12.2374 95.0046 11.3685C94.5649 10.4997 94.345 9.43772 94.345 8.18267C94.345 6.92762 94.5649 5.87104 95.0046 5.01289C95.4552 4.14401 96.013 3.44137 96.678 2.90503C97.3538 2.35796 98.0832 1.96644 98.8663 1.73044C99.6493 1.48373 100.379 1.36035 101.054 1.36035H115.295V5.54385H101.054C100.261 5.54385 99.6385 5.78519 99.188 6.26791C98.7481 6.75062 98.5283 7.38889 98.5283 8.18267C98.5283 8.98719 98.7481 9.62541 99.188 10.0974C99.6385 10.5587 100.261 10.7893 101.054 10.7893H110.677H110.709C111.159 10.8 111.637 10.8644 112.141 10.9824C112.645 11.0897 113.144 11.2613 113.637 11.4973C114.141 11.7333 114.619 12.0336 115.069 12.3983C115.52 12.7523 115.917 13.1814 116.26 13.6856C116.614 14.1897 116.893 14.769 117.097 15.4234C117.301 16.0777 117.403 16.8178 117.403 17.6438H117.402Z" fill="black"/>
</g>
<defs>
<clipPath id="clip0_709_1042">
<rect width="120" height="24" fill="white" transform="translate(0 0.896973)"/>
</clipPath>
</defs>
</svg>
