<svg width="61" height="61" viewBox="0 0 61 61" fill="none" xmlns="http://www.w3.org/2000/svg">
<g clip-path="url(#clip0_820_1152)">
<path d="M60.9702 30.4622C60.9981 37.9727 58.2012 45.2191 53.1346 50.7633C48.068 56.3074 41.102 59.7439 33.6194 60.3906H31.0418C28.8277 60.373 26.6209 60.1332 24.4547 59.6747C18.8855 58.4511 13.779 55.6694 9.7306 51.6539C5.68225 47.6384 2.85897 42.5547 1.59003 36.9957C0.321101 31.4367 0.658817 25.6314 2.56379 20.257C4.46877 14.8826 7.86249 10.1606 12.3492 6.64161C16.8358 3.12266 22.2305 0.951836 27.904 0.382322C33.5775 -0.187193 39.296 0.868073 44.3926 3.42505C49.4892 5.98202 53.7537 9.93531 56.6889 14.8239C59.6241 19.7124 61.1089 25.3347 60.9702 31.035V30.4622Z" fill="#4285F4"/>
<path d="M34.4787 24.307C34.8256 23.9434 35.2512 23.664 35.7228 23.4903C36.1944 23.3165 36.6995 23.253 37.1994 23.3046C38.5293 23.1166 39.8791 23.1166 41.209 23.3046L42.3546 17.0039C39.9601 16.1834 37.4387 15.7955 34.9083 15.8583C32.7627 15.7563 30.6311 16.252 28.7507 17.2903C27.2959 17.9611 26.128 19.129 25.4572 20.5838C24.7281 22.6515 24.3882 24.8363 24.4548 27.0278V29.4621H19.5861V36.622H24.4548V59.8201C26.621 60.2786 28.8278 60.5185 31.0419 60.5361H33.6195V37.1948H40.2066V30.0349H33.6195V27.7437C33.6195 25.8822 33.7627 24.8798 34.4787 24.307Z" fill="white"/>
</g>
<defs>
<clipPath id="clip0_820_1152">
<rect width="60" height="60" fill="white" transform="translate(0.970093 0.532715)"/>
</clipPath>
</defs>
</svg>
