<svg width="61" height="61" viewBox="0 0 61 61" fill="none" xmlns="http://www.w3.org/2000/svg">
<g clip-path="url(#clip0_820_1158)">
<path fill-rule="evenodd" clip-rule="evenodd" d="M3.67365 17.0807C4.92358 14.3912 6.68828 12.04 8.76218 9.91451C13.4461 5.10587 19.1235 2.02635 25.827 0.975665C35.2163 -0.49561 43.6287 1.67504 50.8898 7.80509C51.3487 8.19346 51.4621 8.41906 50.9638 8.89767C48.3982 11.3584 45.8753 13.8594 43.3359 16.3459C43.0761 16.6005 42.9001 16.9131 42.438 16.4974C36.0403 10.7541 25.5984 10.8202 18.8028 17.0131C16.5119 19.1092 14.7694 21.7147 13.7224 24.6095C13.558 24.508 13.3935 24.4178 13.2471 24.305L3.67365 17.0807Z" fill="#EA4335"/>
<path fill-rule="evenodd" clip-rule="evenodd" d="M13.6467 36.3379C14.5644 38.6197 15.7042 40.7775 17.3965 42.6097C21.7033 47.2701 27.0501 49.2769 33.4368 48.6302C36.407 48.3272 39.1157 47.341 41.6452 45.8262C41.887 46.039 42.1188 46.2662 42.3738 46.4628C45.3341 48.7274 48.2972 50.9894 51.2631 53.2487C48.0516 56.2384 44.0991 58.3548 39.7966 59.3884C29.5636 61.9297 20.1316 60.3182 11.7554 53.8449C8.31219 51.1993 5.53814 47.8112 3.64893 43.944L13.6467 36.3379Z" fill="#34A853"/>
<path fill-rule="evenodd" clip-rule="evenodd" d="M51.263 53.2486C48.3027 50.9861 45.3396 48.7241 42.3737 46.4627C42.1188 46.2661 41.8803 46.0389 41.6451 45.8261C43.6516 44.3259 45.3258 42.5516 46.4245 40.2972C46.8437 39.3946 47.1906 38.4614 47.4622 37.5061C47.6629 36.8502 47.6004 36.594 46.7731 36.6021C41.8392 36.6423 36.9053 36.6214 31.9713 36.6214C30.927 36.6214 30.927 36.6214 30.927 35.5627C30.927 32.2865 30.9418 29.012 30.9122 25.7327C30.9122 25.101 31.0191 24.8592 31.7444 24.8608C40.8447 24.8866 49.9451 24.8866 59.0455 24.8608C59.5389 24.8608 59.8448 24.8963 59.9303 25.4813C61.0618 33.2776 60.154 40.7258 55.9832 47.6068C54.7118 49.7243 53.1807 51.6468 51.263 53.2486Z" fill="#4285F4"/>
<path fill-rule="evenodd" clip-rule="evenodd" d="M13.6468 36.3377L3.64897 43.9438C2.01913 40.9803 1.08333 37.7945 0.644205 34.4764C-0.118911 28.7331 0.719858 23.1993 3.20821 17.925C3.34471 17.6349 3.5174 17.3626 3.67364 17.0806L13.2471 24.3048C13.3968 24.4176 13.5645 24.5079 13.7224 24.6094C12.3804 28.5108 12.4528 32.4218 13.6468 36.3377Z" fill="#FBBC05"/>
</g>
<defs>
<clipPath id="clip0_820_1158">
<rect width="60" height="60" fill="white" transform="translate(0.37439 0.532715)"/>
</clipPath>
</defs>
</svg>
