<svg width="1439" height="893" viewBox="0 0 1439 893" fill="none" xmlns="http://www.w3.org/2000/svg">
<g clip-path="url(#clip0_401_8134)">
<path opacity="0.61" d="M718.39 881.22H1163.39C1240.67 817.63 1289.9 721.58 1289.9 614.12C1289.9 422.65 1133.64 267.43 940.9 267.43C748.16 267.43 591.9 422.65 591.9 614.12C591.89 721.58 641.11 817.63 718.39 881.22Z" fill="#CBE5F4"/>
<path d="M503.42 892.8C711.355 892.8 879.92 725.355 879.92 518.8C879.92 312.246 711.355 144.8 503.42 144.8C295.485 144.8 126.92 312.246 126.92 518.8C126.92 725.355 295.485 892.8 503.42 892.8Z" fill="#E6F0F9"/>
<path d="M5 887H1433.03" stroke="#1D9DF4" stroke-width="10" stroke-miterlimit="10" stroke-linecap="round"/>
<path d="M938.62 123.53H607.77C587.01 123.53 570.18 140.36 570.18 161.12V846.04C570.18 866.801 587.01 883.63 607.77 883.63H938.62C959.38 883.63 976.21 866.801 976.21 846.04V161.12C976.21 140.36 959.38 123.53 938.62 123.53Z" fill="white" stroke="black" stroke-width="2" stroke-miterlimit="10"/>
<path d="M569.27 801.61H977.57V853.33C977.57 861.61 974.281 869.551 968.426 875.406C962.571 881.261 954.63 884.55 946.35 884.55H595C588.171 884.55 581.621 881.837 576.792 877.008C571.963 872.179 569.25 865.63 569.25 858.8V801.61H569.27Z" fill="black"/>
<path d="M770.91 862.22C783.618 862.22 793.92 851.663 793.92 838.64C793.92 825.617 783.618 815.06 770.91 815.06C758.202 815.06 747.9 825.617 747.9 838.64C747.9 851.663 758.202 862.22 770.91 862.22Z" stroke="white" stroke-width="2" stroke-miterlimit="10"/>
<path d="M686 123.39H853V137.88C853 140.299 852.524 142.694 851.598 144.929C850.672 147.164 849.315 149.195 847.605 150.905C845.894 152.615 843.864 153.972 841.629 154.898C839.394 155.824 836.999 156.3 834.58 156.3H704.41C699.526 156.297 694.844 154.356 691.392 150.902C687.939 147.447 686 142.764 686 137.88V123.39Z" fill="black"/>
<path d="M899.74 155.96C899.742 156.483 899.589 156.994 899.3 157.43C899.011 157.865 898.599 158.205 898.117 158.406C897.635 158.608 897.104 158.661 896.591 158.561C896.078 158.46 895.607 158.209 895.237 157.84C894.867 157.472 894.614 157.001 894.511 156.489C894.409 155.976 894.461 155.445 894.66 154.962C894.86 154.479 895.198 154.066 895.632 153.776C896.067 153.485 896.577 153.33 897.1 153.33C897.446 153.329 897.789 153.396 898.11 153.527C898.43 153.659 898.721 153.853 898.966 154.097C899.211 154.341 899.406 154.632 899.539 154.951C899.672 155.271 899.74 155.614 899.74 155.96Z" fill="black"/>
<path d="M907.37 158.44H903.91C903.869 155.992 902.88 153.655 901.151 151.92C899.423 150.186 897.088 149.189 894.64 149.14V145.69C898.004 145.742 901.215 147.103 903.591 149.483C905.968 151.864 907.324 155.077 907.37 158.44Z" fill="black"/>
<path d="M914.11 158.44H910.66C910.601 154.215 908.896 150.18 905.908 147.192C902.92 144.204 898.885 142.5 894.66 142.44V138.99C899.809 139.045 904.732 141.117 908.37 144.761C912.009 148.405 914.073 153.331 914.12 158.48L914.11 158.44Z" fill="black"/>
<path d="M950.98 142.37H924.78C922.808 142.37 921.21 143.968 921.21 145.94V155.02C921.21 156.992 922.808 158.59 924.78 158.59H950.98C952.952 158.59 954.55 156.992 954.55 155.02V145.94C954.55 143.968 952.952 142.37 950.98 142.37Z" stroke="black" stroke-miterlimit="10"/>
<path d="M949.3 143.93H925.43C924.336 143.93 923.45 144.817 923.45 145.91V154.84C923.45 155.934 924.336 156.82 925.43 156.82H949.3C950.394 156.82 951.28 155.934 951.28 154.84V145.91C951.28 144.817 950.394 143.93 949.3 143.93Z" fill="black"/>
<path d="M956.3 145.86H955.2C954.758 145.86 954.4 146.219 954.4 146.66V154.29C954.4 154.732 954.758 155.09 955.2 155.09H956.3C956.742 155.09 957.1 154.732 957.1 154.29V146.66C957.1 146.219 956.742 145.86 956.3 145.86Z" fill="black"/>
<path d="M604.074 153.09H605.264V143.99H604.214L602.226 145.054L602.464 145.992L604.046 145.138H604.074V153.09ZM614.388 153.09V152.068H610.3V152.04L611.028 151.368C612.946 149.52 614.164 148.162 614.164 146.482C614.164 145.18 613.338 143.836 611.378 143.836C610.328 143.836 609.432 144.228 608.802 144.76L609.194 145.628C609.614 145.278 610.3 144.858 611.126 144.858C612.484 144.858 612.932 145.712 612.932 146.636C612.918 148.008 611.868 149.184 609.544 151.396L608.578 152.334V153.09H614.388ZM616.679 148.302C617.197 148.302 617.519 147.924 617.519 147.434C617.505 146.916 617.183 146.552 616.693 146.552C616.203 146.552 615.853 146.916 615.853 147.434C615.853 147.924 616.189 148.302 616.679 148.302ZM616.679 153.244C617.197 153.244 617.519 152.866 617.519 152.376C617.505 151.858 617.183 151.494 616.693 151.494C616.203 151.494 615.853 151.858 615.853 152.376C615.853 152.866 616.189 153.244 616.679 153.244ZM621.692 143.836C619.844 143.836 618.528 145.516 618.528 148.568C618.556 151.578 619.76 153.244 621.538 153.244C623.554 153.244 624.702 151.536 624.702 148.442C624.702 145.544 623.61 143.836 621.692 143.836ZM621.622 144.788C622.896 144.788 623.47 146.258 623.47 148.498C623.47 150.822 622.868 152.292 621.608 152.292C620.488 152.292 619.76 150.948 619.76 148.582C619.76 146.104 620.544 144.788 621.622 144.788ZM628.87 143.836C627.022 143.836 625.706 145.516 625.706 148.568C625.734 151.578 626.938 153.244 628.716 153.244C630.732 153.244 631.88 151.536 631.88 148.442C631.88 145.544 630.788 143.836 628.87 143.836ZM628.8 144.788C630.074 144.788 630.648 146.258 630.648 148.498C630.648 150.822 630.046 152.292 628.786 152.292C627.666 152.292 626.938 150.948 626.938 148.582C626.938 146.104 627.722 144.788 628.8 144.788Z" fill="black"/>
<path d="M871.73 131.03V158.5" stroke="black" stroke-width="2" stroke-miterlimit="10"/>
<path d="M876.95 137.63V158.5" stroke="black" stroke-width="2" stroke-miterlimit="10"/>
<path d="M882.16 142.48V158.5" stroke="black" stroke-width="2" stroke-miterlimit="10"/>
<path d="M887.38 147.11V158.59" stroke="black" stroke-width="2" stroke-miterlimit="10"/>
<path d="M956.84 164.66H583.75V206H956.84V164.66Z" fill="#FAFAFA"/>
<path d="M956.25 710.58H583.75V811.09H956.25V710.58Z" fill="white"/>
<path d="M956.51 325.93H583.75V710.58H956.51V325.93Z" fill="#E6F0F9"/>
<path d="M583.91 767.91H956.68" stroke="#DDDDDD" stroke-miterlimit="10"/>
<path d="M956.84 206H583.75V282.99H956.84V206Z" fill="#FAFAFA"/>
<path d="M956.84 282.99H583.75V325.93H956.84V282.99Z" fill="#FAFAFA"/>
<path d="M611.72 179.48C611.652 178.86 611.371 178.281 610.924 177.845C610.477 177.409 609.892 177.142 609.27 177.09H603.43C602.813 177.15 602.234 177.421 601.792 177.855C601.35 178.29 601.07 178.864 601 179.48C596.09 179.13 595.63 182.48 595.63 182.48V191.58C595.7 194.5 598.95 194.44 598.95 194.44H613.81C613.81 194.44 617.06 194.5 617.13 191.58V182.48C617.13 182.48 616.63 179.13 611.72 179.48Z" stroke="#2B2B2B" stroke-width="1.4" stroke-linecap="round" stroke-linejoin="round"/>
<path d="M611 186.72C611.124 187.69 610.95 188.674 610.5 189.542C610.051 190.41 609.347 191.121 608.484 191.579C607.621 192.037 606.638 192.222 605.668 192.107C604.697 191.993 603.784 191.586 603.05 190.94C602.317 190.294 601.797 189.44 601.561 188.492C601.325 187.543 601.384 186.545 601.729 185.631C602.074 184.717 602.69 183.929 603.494 183.373C604.298 182.818 605.253 182.52 606.23 182.52C607.418 182.449 608.587 182.851 609.481 183.637C610.374 184.424 610.92 185.532 611 186.72V186.72Z" stroke="#2B2B2B" stroke-width="1.4" stroke-linecap="round" stroke-linejoin="round"/>
<path d="M922.86 177.18L930.67 183.66L944.08 177.18H922.86Z" stroke="#363636" stroke-width="1.2" stroke-linecap="round" stroke-linejoin="round"/>
<path d="M933.08 193.47L930.67 183.66L944.08 177.18L933.08 193.47Z" stroke="#363636" stroke-width="1.2" stroke-linecap="round" stroke-linejoin="round"/>
<path d="M922.71 721.14H941.04V739.27L931.86 731.26L922.7 739.25L922.71 721.14Z" stroke="black" stroke-linecap="round" stroke-linejoin="round"/>
<path d="M608.64 724.63C599.37 719.36 597.97 726.96 598.53 730.39C599.09 733.82 608.64 739.7 608.64 739.7C608.64 739.7 618.19 733.82 618.75 730.39C619.31 726.96 617.9 719.36 608.64 724.63Z" fill="#F14D56"/>
<path d="M656.73 730.63C656.722 732.259 656.209 733.846 655.26 735.17C654.83 735.79 656.73 739.7 656.73 739.7C656.73 739.7 652.48 737.79 651.73 738.15C650.18 738.933 648.466 739.337 646.73 739.33C641.22 739.33 636.73 735.43 636.73 730.63C636.73 725.83 641.19 721.93 646.73 721.93C652.27 721.93 656.73 725.88 656.73 730.63Z" stroke="black" stroke-linecap="round" stroke-linejoin="round"/>
<path d="M673.7 722.21L681.51 728.69L694.93 722.21H673.7Z" stroke="#363636" stroke-width="1.2" stroke-linecap="round" stroke-linejoin="round"/>
<path d="M683.92 738.5L681.51 728.69L694.93 722.21L683.92 738.5Z" stroke="#363636" stroke-width="1.2" stroke-linecap="round" stroke-linejoin="round"/>
<path d="M603.511 749.988H599.452L598.904 754.059C599.217 754.02 599.596 753.968 600.078 753.968C601.775 753.968 602.506 754.751 602.519 755.847C602.519 756.983 601.592 757.687 600.509 757.687C599.739 757.687 599.048 757.426 598.695 757.217L598.408 758.092C598.813 758.353 599.596 758.614 600.522 758.614C602.362 758.614 603.68 757.374 603.68 755.717C603.68 754.647 603.132 753.916 602.467 753.537C601.945 753.224 601.292 753.081 600.64 753.081C600.326 753.081 600.144 753.107 599.948 753.133L600.274 750.953H603.511V749.988ZM610.554 758.47V757.518H606.743V757.491L607.422 756.865C609.21 755.142 610.345 753.877 610.345 752.311C610.345 751.097 609.575 749.844 607.748 749.844C606.769 749.844 605.934 750.21 605.347 750.705L605.712 751.515C606.104 751.188 606.743 750.797 607.513 750.797C608.779 750.797 609.196 751.593 609.196 752.454C609.183 753.733 608.205 754.829 606.038 756.891L605.138 757.766V758.47H610.554ZM617.244 758.47V757.518H613.434V757.491L614.112 756.865C615.9 755.142 617.036 753.877 617.036 752.311C617.036 751.097 616.266 749.844 614.439 749.844C613.46 749.844 612.625 750.21 612.037 750.705L612.403 751.515C612.794 751.188 613.434 750.797 614.204 750.797C615.47 750.797 615.887 751.593 615.887 752.454C615.874 753.733 614.895 754.829 612.729 756.891L611.829 757.766V758.47H617.244ZM623.361 749.857C623.152 749.857 622.865 749.87 622.526 749.922C621.456 750.053 620.516 750.484 619.811 751.175C618.976 752.01 618.376 753.329 618.376 754.999C618.376 757.204 619.563 758.614 621.377 758.614C623.139 758.614 624.196 757.178 624.196 755.625C624.196 753.968 623.139 752.885 621.638 752.885C620.699 752.885 619.994 753.329 619.589 753.864H619.55C619.746 752.467 620.699 751.149 622.5 750.849C622.826 750.797 623.126 750.784 623.361 750.797V749.857ZM621.377 757.726C620.177 757.726 619.537 756.695 619.511 755.299C619.511 755.09 619.563 754.921 619.642 754.79C619.955 754.177 620.594 753.746 621.286 753.746C622.343 753.746 623.035 754.477 623.035 755.691C623.035 756.904 622.369 757.726 621.377 757.726ZM628.341 758.47H629.489V749.205H628.341V758.47ZM632.573 758.47V752.154H631.425V758.47H632.573ZM631.999 749.661C631.581 749.661 631.281 749.975 631.281 750.379C631.281 750.771 631.568 751.084 631.973 751.084C632.43 751.084 632.717 750.771 632.704 750.379C632.704 749.975 632.43 749.661 631.999 749.661ZM635.619 749.205H634.483V758.47H635.619V756.095L636.206 755.443L638.385 758.47H639.782L637.002 754.751L639.442 752.154H638.059L636.206 754.333C636.023 754.555 635.802 754.829 635.645 755.051H635.619V749.205ZM645.677 755.521C645.69 755.403 645.716 755.221 645.716 754.986C645.716 753.824 645.168 752.01 643.106 752.01C641.266 752.01 640.144 753.511 640.144 755.417C640.144 757.322 641.305 758.601 643.25 758.601C644.255 758.601 644.946 758.392 645.351 758.209L645.155 757.387C644.724 757.57 644.229 757.713 643.406 757.713C642.258 757.713 641.266 757.074 641.24 755.521H645.677ZM641.253 754.699C641.345 753.903 641.853 752.833 643.015 752.833C644.307 752.833 644.62 753.968 644.607 754.699H641.253ZM646.695 758.17C647.138 758.431 647.778 758.601 648.47 758.601C649.97 758.601 650.832 757.818 650.832 756.708C650.832 755.769 650.27 755.221 649.174 754.803C648.352 754.49 647.974 754.255 647.974 753.733C647.974 753.263 648.352 752.872 649.031 752.872C649.618 752.872 650.075 753.081 650.323 753.237L650.61 752.402C650.257 752.193 649.696 752.01 649.057 752.01C647.7 752.01 646.877 752.846 646.877 753.864C646.877 754.62 647.412 755.247 648.548 755.651C649.396 755.965 649.722 756.265 649.722 756.813C649.722 757.335 649.331 757.752 648.496 757.752C647.921 757.752 647.321 757.518 646.982 757.296L646.695 758.17Z" fill="black"/>
<path d="M618.63 797.31H610.84V787.39L621 778.57H621.84L631.9 787.34V797.34H623.9V791.39C623.22 789.3 619.35 789.28 618.67 791.32L618.63 797.31Z" fill="#1B1B1B"/>
<path d="M693.85 793.58C698.699 793.58 702.63 790.151 702.63 785.92C702.63 781.69 698.699 778.26 693.85 778.26C689.001 778.26 685.07 781.69 685.07 785.92C685.07 790.151 689.001 793.58 693.85 793.58Z" stroke="#1B1B1B" stroke-linecap="round" stroke-linejoin="round"/>
<path d="M699.85 791.5L706.66 797.09" stroke="#1B1B1B" stroke-linecap="round" stroke-linejoin="round"/>
<path d="M770.29 797.09C764.58 797.09 759.95 793.09 759.95 788.09V787.32C759.95 782.32 764.58 778.32 770.29 778.32C776.01 778.32 780.64 782.32 780.64 787.32V788.09C780.64 793.05 776 797.09 770.29 797.09Z" stroke="#1B1B1B" stroke-linecap="round" stroke-linejoin="round"/>
<path d="M770.29 782.42V793.17" stroke="#1B1B1B" stroke-linecap="round" stroke-linejoin="round"/>
<path d="M764.27 787.67H776.59" stroke="#1B1B1B" stroke-linecap="round" stroke-linejoin="round"/>
<path d="M855 782.61C853.68 779.35 849.31 779.47 847.19 780.5C846.29 780.945 845.514 781.604 844.93 782.42C844.341 781.605 843.561 780.946 842.66 780.5C840.54 779.5 836.17 779.35 834.85 782.61C832.15 789.31 844.93 795.93 844.93 795.93C844.93 795.93 857.71 789.31 855 782.61Z" stroke="#1B1B1B" stroke-linecap="round" stroke-linejoin="round"/>
<path d="M929.75 787.94C929.75 792.74 925.29 796.63 919.75 796.63C914.21 796.63 909.75 792.74 909.75 787.94C909.75 783.14 914.21 779.24 919.75 779.24C925.29 779.24 929.75 783.13 929.75 787.94Z" fill="#A9C4EA"/>
<path d="M919.76 802.95C920.865 802.95 921.76 802.167 921.76 801.2C921.76 800.234 920.865 799.45 919.76 799.45C918.655 799.45 917.76 800.234 917.76 801.2C917.76 802.167 918.655 802.95 919.76 802.95Z" fill="#F14D56"/>
<path d="M611.07 318.95C620.243 318.95 627.68 312.463 627.68 304.46C627.68 296.458 620.243 289.97 611.07 289.97C601.897 289.97 594.46 296.458 594.46 304.46C594.46 312.463 601.897 318.95 611.07 318.95Z" stroke="url(#paint0_linear_401_8134)" stroke-miterlimit="10"/>
<path d="M611.07 316.96C618.979 316.96 625.39 311.364 625.39 304.46C625.39 297.556 618.979 291.96 611.07 291.96C603.161 291.96 596.75 297.556 596.75 304.46C596.75 311.364 603.161 316.96 611.07 316.96Z" fill="#A9C4EA"/>
<path d="M741.405 307.45H742.492V304.225C742.492 304.038 742.517 303.863 742.542 303.713C742.692 302.888 743.242 302.3 744.017 302.3C744.167 302.3 744.28 302.313 744.392 302.338V301.3C744.292 301.275 744.205 301.263 744.08 301.263C743.342 301.263 742.68 301.775 742.405 302.588H742.355L742.317 301.4H741.355C741.392 301.963 741.405 302.575 741.405 303.288V307.45ZM746.643 307.45V301.4H745.543V307.45H746.643ZM746.093 299.013C745.693 299.013 745.405 299.313 745.405 299.7C745.405 300.075 745.68 300.375 746.068 300.375C746.505 300.375 746.78 300.075 746.768 299.7C746.768 299.313 746.505 299.013 746.093 299.013ZM751.035 301.263C749.36 301.263 748.035 302.45 748.035 304.475C748.035 306.388 749.297 307.588 750.935 307.588C752.397 307.588 753.947 306.613 753.947 304.375C753.947 302.525 752.772 301.263 751.035 301.263ZM751.01 302.088C752.31 302.088 752.822 303.388 752.822 304.413C752.822 305.775 752.035 306.763 750.985 306.763C749.91 306.763 749.147 305.763 749.147 304.438C749.147 303.288 749.71 302.088 751.01 302.088Z" fill="black"/>
<path d="M934.89 300.1C934.929 300.388 934.878 300.681 934.746 300.94C934.614 301.199 934.406 301.412 934.15 301.55C933.893 301.687 933.601 301.744 933.312 301.711C933.023 301.678 932.751 301.558 932.532 301.367C932.313 301.176 932.157 300.922 932.086 300.64C932.015 300.358 932.031 300.061 932.133 299.789C932.235 299.517 932.418 299.282 932.657 299.116C932.895 298.95 933.179 298.861 933.47 298.86C933.822 298.838 934.169 298.956 934.435 299.188C934.701 299.42 934.864 299.748 934.89 300.1Z" fill="#1B1B1B"/>
<path d="M934.89 304.6C934.929 304.888 934.878 305.182 934.746 305.441C934.614 305.7 934.406 305.912 934.15 306.05C933.893 306.187 933.601 306.244 933.312 306.211C933.023 306.179 932.751 306.059 932.532 305.867C932.313 305.676 932.157 305.422 932.086 305.14C932.015 304.859 932.031 304.561 932.133 304.289C932.235 304.017 932.418 303.782 932.657 303.616C932.895 303.45 933.179 303.361 933.47 303.36C933.645 303.348 933.82 303.37 933.986 303.426C934.152 303.482 934.306 303.57 934.438 303.685C934.57 303.8 934.678 303.94 934.755 304.098C934.833 304.255 934.879 304.425 934.89 304.6Z" fill="#1B1B1B"/>
<path d="M934.89 309.56C934.929 309.848 934.878 310.141 934.746 310.4C934.614 310.659 934.406 310.872 934.15 311.01C933.893 311.147 933.601 311.204 933.312 311.171C933.023 311.138 932.751 311.018 932.532 310.827C932.313 310.636 932.157 310.382 932.086 310.1C932.015 309.818 932.031 309.521 932.133 309.249C932.235 308.977 932.418 308.742 932.657 308.576C932.895 308.41 933.179 308.321 933.47 308.32C933.822 308.298 934.169 308.416 934.435 308.648C934.701 308.88 934.864 309.208 934.89 309.56Z" fill="#1B1B1B"/>
<path d="M623.43 261.08C638.839 261.08 651.33 250.183 651.33 236.74C651.33 223.298 638.839 212.4 623.43 212.4C608.021 212.4 595.53 223.298 595.53 236.74C595.53 250.183 608.021 261.08 623.43 261.08Z" stroke="#B6ADA1" stroke-miterlimit="10"/>
<path d="M623.43 257.73C636.712 257.73 647.48 248.332 647.48 236.74C647.48 225.148 636.712 215.75 623.43 215.75C610.148 215.75 599.38 225.148 599.38 236.74C599.38 248.332 610.148 257.73 623.43 257.73Z" fill="#A9C4EA"/>
<path d="M595.923 271.56H596.773L596.353 264.827H595.244L594.045 268.084C593.746 268.933 593.506 269.672 593.336 270.351H593.306C593.136 269.652 592.906 268.913 592.627 268.084L591.478 264.827H590.369L589.899 271.56H590.729L590.908 268.673C590.968 267.664 591.018 266.535 591.038 265.696H591.058C591.248 266.495 591.518 267.364 591.837 268.313L592.926 271.52H593.586L594.775 268.253C595.114 267.324 595.394 266.485 595.624 265.696H595.654C595.644 266.535 595.704 267.664 595.754 268.603L595.923 271.56ZM599.075 271.56V266.725H598.195V271.56H599.075ZM598.635 264.817C598.315 264.817 598.086 265.057 598.086 265.366C598.086 265.666 598.305 265.906 598.615 265.906C598.965 265.906 599.184 265.666 599.174 265.366C599.174 265.057 598.965 264.817 598.635 264.817ZM600.537 271.56H601.416V268.653C601.416 268.503 601.436 268.353 601.476 268.243C601.626 267.754 602.075 267.344 602.655 267.344C603.484 267.344 603.774 267.994 603.774 268.773V271.56H604.653V268.673C604.653 267.015 603.614 266.615 602.944 266.615C602.145 266.615 601.586 267.065 601.346 267.524H601.326L601.276 266.725H600.497C600.527 267.124 600.537 267.534 600.537 268.034V271.56ZM606.078 271.56H606.957V268.643C606.957 268.473 606.967 268.343 607.017 268.223C607.177 267.744 607.627 267.344 608.196 267.344C609.025 267.344 609.315 268.004 609.315 268.783V271.56H610.194V268.683C610.194 267.015 609.155 266.615 608.506 266.615C608.176 266.615 607.866 266.715 607.607 266.865C607.337 267.015 607.117 267.234 606.977 267.484H606.957V264.467H606.078V271.56ZM615.096 271.56C615.036 271.23 615.016 270.821 615.016 270.401V268.593C615.016 267.624 614.656 266.615 613.178 266.615C612.569 266.615 611.989 266.785 611.59 267.045L611.789 267.624C612.129 267.404 612.599 267.264 613.048 267.264C614.037 267.264 614.147 267.984 614.147 268.383V268.483C612.279 268.473 611.24 269.113 611.24 270.281C611.24 270.981 611.739 271.67 612.718 271.67C613.408 271.67 613.927 271.33 614.197 270.951H614.227L614.297 271.56H615.096ZM614.167 269.932C614.167 270.022 614.147 270.121 614.117 270.211C613.977 270.621 613.578 271.021 612.948 271.021C612.499 271.021 612.119 270.751 612.119 270.181C612.119 269.242 613.208 269.073 614.167 269.093V269.932ZM618.556 271.56H619.435V268.643C619.435 268.473 619.445 268.343 619.495 268.223C619.655 267.744 620.104 267.344 620.674 267.344C621.503 267.344 621.793 268.004 621.793 268.783V271.56H622.672V268.683C622.672 267.015 621.633 266.615 620.983 266.615C620.654 266.615 620.344 266.715 620.084 266.865C619.815 267.015 619.595 267.234 619.455 267.484H619.435V264.467H618.556V271.56ZM624.976 271.56V266.725H624.097V271.56H624.976ZM624.537 264.817C624.217 264.817 623.987 265.057 623.987 265.366C623.987 265.666 624.207 265.906 624.517 265.906C624.866 265.906 625.086 265.666 625.076 265.366C625.076 265.057 624.866 264.817 624.537 264.817ZM626.099 271.33C626.439 271.53 626.928 271.66 627.458 271.66C628.606 271.66 629.266 271.061 629.266 270.211C629.266 269.492 628.836 269.073 627.997 268.753C627.368 268.513 627.078 268.333 627.078 267.934C627.078 267.574 627.368 267.274 627.887 267.274C628.337 267.274 628.686 267.434 628.876 267.554L629.096 266.915C628.826 266.755 628.397 266.615 627.907 266.615C626.868 266.615 626.239 267.254 626.239 268.034C626.239 268.613 626.648 269.093 627.518 269.402C628.167 269.642 628.417 269.872 628.417 270.291C628.417 270.691 628.117 271.011 627.478 271.011C627.038 271.011 626.578 270.831 626.319 270.661L626.099 271.33ZM630.599 265.566V266.725H629.85V267.394H630.599V270.032C630.599 270.601 630.689 271.031 630.939 271.29C631.149 271.53 631.478 271.66 631.888 271.66C632.228 271.66 632.497 271.61 632.667 271.54L632.627 270.881C632.517 270.911 632.348 270.941 632.118 270.941C631.628 270.941 631.458 270.601 631.458 270.002V267.394H632.717V266.725H631.458V265.336L630.599 265.566ZM635.696 266.615C634.358 266.615 633.299 267.564 633.299 269.182C633.299 270.711 634.308 271.67 635.616 271.67C636.785 271.67 638.024 270.891 638.024 269.103C638.024 267.624 637.085 266.615 635.696 266.615ZM635.676 267.274C636.715 267.274 637.125 268.313 637.125 269.132C637.125 270.221 636.495 271.011 635.656 271.011C634.797 271.011 634.188 270.211 634.188 269.152C634.188 268.233 634.637 267.274 635.676 267.274ZM639.131 271.56H640V268.983C640 268.833 640.02 268.693 640.04 268.573C640.16 267.914 640.6 267.444 641.219 267.444C641.339 267.444 641.429 267.454 641.519 267.474V266.645C641.439 266.625 641.369 266.615 641.269 266.615C640.679 266.615 640.15 267.025 639.93 267.674H639.89L639.86 266.725H639.091C639.121 267.174 639.131 267.664 639.131 268.233V271.56ZM643.317 271.56V266.725H642.438V271.56H643.317ZM642.878 264.817C642.558 264.817 642.328 265.057 642.328 265.366C642.328 265.666 642.548 265.906 642.858 265.906C643.207 265.906 643.427 265.666 643.417 265.366C643.417 265.057 643.207 264.817 642.878 264.817ZM648.256 271.56C648.196 271.23 648.176 270.821 648.176 270.401V268.593C648.176 267.624 647.817 266.615 646.338 266.615C645.729 266.615 645.149 266.785 644.75 267.045L644.949 267.624C645.289 267.404 645.759 267.264 646.208 267.264C647.197 267.264 647.307 267.984 647.307 268.383V268.483C645.439 268.473 644.4 269.113 644.4 270.281C644.4 270.981 644.9 271.67 645.879 271.67C646.568 271.67 647.087 271.33 647.357 270.951H647.387L647.457 271.56H648.256ZM647.327 269.932C647.327 270.022 647.307 270.121 647.277 270.211C647.137 270.621 646.738 271.021 646.108 271.021C645.659 271.021 645.279 270.751 645.279 270.181C645.279 269.242 646.368 269.073 647.327 269.093V269.932Z" fill="#B6ADA1"/>
<path d="M700.34 261.08C715.749 261.08 728.24 250.183 728.24 236.74C728.24 223.298 715.749 212.4 700.34 212.4C684.931 212.4 672.44 223.298 672.44 236.74C672.44 250.183 684.931 261.08 700.34 261.08Z" stroke="url(#paint1_linear_401_8134)" stroke-miterlimit="10"/>
<path d="M700.34 257.73C713.622 257.73 724.39 248.332 724.39 236.74C724.39 225.148 713.622 215.75 700.34 215.75C687.058 215.75 676.29 225.148 676.29 236.74C676.29 248.332 687.058 257.73 700.34 257.73Z" fill="#E6F0F9"/>
<path d="M707.213 271.65H708.248V268.58C708.248 268.402 708.272 268.235 708.296 268.092C708.438 267.307 708.962 266.748 709.7 266.748C709.843 266.748 709.95 266.759 710.057 266.783V265.796C709.962 265.772 709.878 265.76 709.759 265.76C709.057 265.76 708.426 266.248 708.165 267.021H708.117L708.081 265.891H707.165C707.201 266.426 707.213 267.009 707.213 267.688V271.65ZM712.199 271.65V265.891H711.152V271.65H712.199ZM711.676 263.618C711.295 263.618 711.021 263.903 711.021 264.272C711.021 264.629 711.283 264.915 711.652 264.915C712.069 264.915 712.33 264.629 712.318 264.272C712.318 263.903 712.069 263.618 711.676 263.618ZM716.381 265.76C714.786 265.76 713.525 266.89 713.525 268.818C713.525 270.639 714.727 271.781 716.286 271.781C717.678 271.781 719.154 270.853 719.154 268.723C719.154 266.962 718.035 265.76 716.381 265.76ZM716.357 266.545C717.595 266.545 718.083 267.783 718.083 268.759C718.083 270.056 717.333 270.996 716.333 270.996C715.31 270.996 714.584 270.044 714.584 268.782C714.584 267.688 715.119 266.545 716.357 266.545Z" fill="#1B1B1B"/>
<path d="M775.75 261.08C791.159 261.08 803.65 250.183 803.65 236.74C803.65 223.298 791.159 212.4 775.75 212.4C760.341 212.4 747.85 223.298 747.85 236.74C747.85 250.183 760.341 261.08 775.75 261.08Z" stroke="url(#paint2_linear_401_8134)" stroke-miterlimit="10"/>
<path d="M775.75 257.73C789.032 257.73 799.8 248.332 799.8 236.74C799.8 225.148 789.032 215.75 775.75 215.75C762.468 215.75 751.7 225.148 751.7 236.74C751.7 248.332 762.468 257.73 775.75 257.73Z" fill="#E6F0F9"/>
<path d="M782.613 271.65H783.648V268.58C783.648 268.402 783.672 268.235 783.696 268.092C783.838 267.307 784.362 266.748 785.1 266.748C785.243 266.748 785.35 266.759 785.457 266.783V265.796C785.362 265.772 785.278 265.76 785.159 265.76C784.457 265.76 783.827 266.248 783.565 267.021H783.517L783.481 265.891H782.565C782.601 266.426 782.613 267.009 782.613 267.688V271.65ZM787.599 271.65V265.891H786.552V271.65H787.599ZM787.076 263.618C786.695 263.618 786.421 263.903 786.421 264.272C786.421 264.629 786.683 264.915 787.052 264.915C787.469 264.915 787.73 264.629 787.718 264.272C787.718 263.903 787.469 263.618 787.076 263.618ZM791.781 265.76C790.186 265.76 788.925 266.89 788.925 268.818C788.925 270.639 790.127 271.781 791.686 271.781C793.078 271.781 794.554 270.853 794.554 268.723C794.554 266.962 793.435 265.76 791.781 265.76ZM791.757 266.545C792.995 266.545 793.483 267.783 793.483 268.759C793.483 270.056 792.733 270.996 791.733 270.996C790.71 270.996 789.984 270.044 789.984 268.782C789.984 267.688 790.519 266.545 791.757 266.545Z" fill="#1B1B1B"/>
<path d="M849.13 261.08C864.539 261.08 877.03 250.183 877.03 236.74C877.03 223.298 864.539 212.4 849.13 212.4C833.721 212.4 821.23 223.298 821.23 236.74C821.23 250.183 833.721 261.08 849.13 261.08Z" stroke="url(#paint3_linear_401_8134)" stroke-miterlimit="10"/>
<path d="M849.13 257.73C862.412 257.73 873.18 248.332 873.18 236.74C873.18 225.148 862.412 215.75 849.13 215.75C835.848 215.75 825.08 225.148 825.08 236.74C825.08 248.332 835.848 257.73 849.13 257.73Z" fill="#E6F0F9"/>
<path d="M855.993 271.65H857.028V268.58C857.028 268.402 857.052 268.235 857.076 268.092C857.218 267.307 857.742 266.748 858.48 266.748C858.623 266.748 858.73 266.759 858.837 266.783V265.796C858.742 265.772 858.658 265.76 858.539 265.76C857.837 265.76 857.207 266.248 856.945 267.021H856.897L856.861 265.891H855.945C855.981 266.426 855.993 267.009 855.993 267.688V271.65ZM860.979 271.65V265.891H859.932V271.65H860.979ZM860.456 263.618C860.075 263.618 859.801 263.903 859.801 264.272C859.801 264.629 860.063 264.915 860.432 264.915C860.849 264.915 861.11 264.629 861.098 264.272C861.098 263.903 860.849 263.618 860.456 263.618ZM865.161 265.76C863.566 265.76 862.305 266.89 862.305 268.818C862.305 270.639 863.507 271.781 865.066 271.781C866.458 271.781 867.934 270.853 867.934 268.723C867.934 266.962 866.815 265.76 865.161 265.76ZM865.137 266.545C866.375 266.545 866.863 267.783 866.863 268.759C866.863 270.056 866.113 270.996 865.113 270.996C864.09 270.996 863.364 270.044 863.364 268.782C863.364 267.688 863.899 266.545 865.137 266.545Z" fill="#1B1B1B"/>
<path d="M923.49 261.08C938.899 261.08 951.39 250.183 951.39 236.74C951.39 223.298 938.899 212.4 923.49 212.4C908.081 212.4 895.59 223.298 895.59 236.74C895.59 250.183 908.081 261.08 923.49 261.08Z" stroke="url(#paint4_linear_401_8134)" stroke-miterlimit="10"/>
<path d="M923.49 257.73C936.772 257.73 947.54 248.332 947.54 236.74C947.54 225.148 936.772 215.75 923.49 215.75C910.208 215.75 899.44 225.148 899.44 236.74C899.44 248.332 910.208 257.73 923.49 257.73Z" fill="#E6F0F9"/>
<path d="M930.353 271.65H931.388V268.58C931.388 268.402 931.412 268.235 931.436 268.092C931.578 267.307 932.102 266.748 932.84 266.748C932.983 266.748 933.09 266.759 933.197 266.783V265.796C933.102 265.772 933.018 265.76 932.899 265.76C932.197 265.76 931.567 266.248 931.305 267.021H931.257L931.221 265.891H930.305C930.341 266.426 930.353 267.009 930.353 267.688V271.65ZM935.339 271.65V265.891H934.292V271.65H935.339ZM934.816 263.618C934.435 263.618 934.161 263.903 934.161 264.272C934.161 264.629 934.423 264.915 934.792 264.915C935.209 264.915 935.47 264.629 935.458 264.272C935.458 263.903 935.209 263.618 934.816 263.618ZM939.521 265.76C937.926 265.76 936.665 266.89 936.665 268.818C936.665 270.639 937.867 271.781 939.426 271.781C940.818 271.781 942.294 270.853 942.294 268.723C942.294 266.962 941.175 265.76 939.521 265.76ZM939.497 266.545C940.735 266.545 941.223 267.783 941.223 268.759C941.223 270.056 940.473 270.996 939.473 270.996C938.45 270.996 937.724 270.044 937.724 268.782C937.724 267.688 938.259 266.545 939.497 266.545Z" fill="#1B1B1B"/>
<path d="M581.12 759.98H516.12V884.98H581.12V759.98Z" fill="black"/>
<path d="M721.12 759.98H581.12V886.98H721.12V759.98Z" fill="#C1DAF0"/>
<path d="M665.12 857.98H637.12V886.98H665.12V857.98Z" fill="#E6F0F9"/>
<path d="M666.12 793.98L651.12 784.98L636.12 793.98V759.98H666.12V793.98Z" fill="#E6F0F9"/>
<path d="M581.12 759.98H516.12L495.12 724.98H560.12L581.12 759.98Z" fill="#C1DAF0"/>
<path d="M656.12 759.98H721.12L742.12 724.98H677.12L656.12 759.98Z" fill="#C1DAF0"/>
<path d="M671.142 581.26L569.355 552.764L540.676 655.205L642.463 683.701L671.142 581.26Z" fill="#C1DDF2"/>
<path d="M550.81 616.37L583.39 599.97L599.57 627.31L619.39 616.6L637.62 647.59" stroke="white" stroke-miterlimit="10"/>
<path d="M599.57 627.31L571.54 643.26" stroke="white" stroke-miterlimit="10"/>
<path d="M636.37 606.12C640.838 606.12 644.46 602.498 644.46 598.03C644.46 593.562 640.838 589.94 636.37 589.94C631.902 589.94 628.28 593.562 628.28 598.03C628.28 602.498 631.902 606.12 636.37 606.12Z" stroke="white" stroke-miterlimit="10"/>
<path d="M711.758 392.491L628.739 457.915L694.583 541.468L777.603 476.044L711.758 392.491Z" fill="#C1DDF2"/>
<path d="M761.16 453.51L718.69 448.55L715.61 474.6L678.08 470.31L671.85 512.28" fill="white"/>
<path d="M704.8 438.5C709.268 438.5 712.89 434.878 712.89 430.41C712.89 425.942 709.268 422.32 704.8 422.32C700.332 422.32 696.71 425.942 696.71 430.41C696.71 434.878 700.332 438.5 704.8 438.5Z" fill="white"/>
<path d="M581.27 498.87C592.006 498.87 600.71 490.167 600.71 479.43C600.71 468.694 592.006 459.99 581.27 459.99C570.534 459.99 561.83 468.694 561.83 479.43C561.83 490.167 570.534 498.87 581.27 498.87Z" fill="#8BDFFF"/>
<path d="M869.27 465.15C879.001 465.15 886.89 457.261 886.89 447.53C886.89 437.799 879.001 429.91 869.27 429.91C859.539 429.91 851.65 437.799 851.65 447.53C851.65 457.261 859.539 465.15 869.27 465.15Z" fill="#8BDFFF"/>
<path d="M743.95 640.37C752.803 640.37 759.98 633.193 759.98 624.34C759.98 615.487 752.803 608.31 743.95 608.31C735.097 608.31 727.92 615.487 727.92 624.34C727.92 633.193 735.097 640.37 743.95 640.37Z" fill="#8BDFFF"/>
<path d="M832.43 653.74L821.49 631.86L748.35 670.14L785.95 743.97L818.76 724.83" stroke="#8BDFFF" stroke-width="2" stroke-miterlimit="10" stroke-linecap="square"/>
<path d="M819.29 667.641L828.56 687.531" stroke="#8BDFFF" stroke-width="2" stroke-miterlimit="10" stroke-linecap="round"/>
<path d="M806.23 667.94L822.33 698.62" stroke="#8BDFFF" stroke-width="2" stroke-miterlimit="10" stroke-linecap="round"/>
<path d="M800.76 678.12L810.94 696.8" stroke="#8BDFFF" stroke-width="2" stroke-miterlimit="10" stroke-linecap="round"/>
<path d="M788.76 676.601L804.41 708.041" stroke="#8BDFFF" stroke-width="2" stroke-miterlimit="10" stroke-linecap="round"/>
<path d="M782.38 689.51L791.8 705.91" stroke="#8BDFFF" stroke-width="2" stroke-miterlimit="10" stroke-linecap="round"/>
<path d="M1336.2 693.15H1208.61V882.26H1336.2V693.15Z" fill="#D3F8F9" stroke="#42210B" stroke-miterlimit="10"/>
<path d="M1335.93 748.75H1208.34V779.281H1335.93V748.75Z" fill="#A9C4EA"/>
<path d="M1335.49 799.331H1209.25V829.861H1335.49V799.331Z" fill="#A9C4EA"/>
<path d="M1230.47 728.7C1234.29 728.7 1237.38 725.607 1237.38 721.79C1237.38 717.974 1234.29 714.88 1230.47 714.88C1226.65 714.88 1223.56 717.974 1223.56 721.79C1223.56 725.607 1226.65 728.7 1230.47 728.7Z" fill="#A9C4EA"/>
<path d="M1258.22 729C1262.04 729 1265.13 725.906 1265.13 722.09C1265.13 718.274 1262.04 715.18 1258.22 715.18C1254.4 715.18 1251.31 718.274 1251.31 722.09C1251.31 725.906 1254.4 729 1258.22 729Z" fill="#A9C4EA"/>
<path d="M1285.96 729C1289.78 729 1292.87 725.906 1292.87 722.09C1292.87 718.274 1289.78 715.18 1285.96 715.18C1282.14 715.18 1279.05 718.274 1279.05 722.09C1279.05 725.906 1282.14 729 1285.96 729Z" fill="#A9C4EA"/>
<path d="M1313.71 728.55C1317.53 728.55 1320.62 725.457 1320.62 721.641C1320.62 717.824 1317.53 714.73 1313.71 714.73C1309.89 714.73 1306.8 717.824 1306.8 721.641C1306.8 725.457 1309.89 728.55 1313.71 728.55Z" fill="#A9C4EA"/>
<path d="M1230.47 862.44C1234.29 862.44 1237.38 859.346 1237.38 855.53C1237.38 851.714 1234.29 848.62 1230.47 848.62C1226.65 848.62 1223.56 851.714 1223.56 855.53C1223.56 859.346 1226.65 862.44 1230.47 862.44Z" fill="#A9C4EA"/>
<path d="M1258.22 862.75C1262.04 862.75 1265.13 859.656 1265.13 855.84C1265.13 852.024 1262.04 848.93 1258.22 848.93C1254.4 848.93 1251.31 852.024 1251.31 855.84C1251.31 859.656 1254.4 862.75 1258.22 862.75Z" fill="#A9C4EA"/>
<path d="M1285.96 862.75C1289.78 862.75 1292.87 859.656 1292.87 855.84C1292.87 852.024 1289.78 848.93 1285.96 848.93C1282.14 848.93 1279.05 852.024 1279.05 855.84C1279.05 859.656 1282.14 862.75 1285.96 862.75Z" fill="#A9C4EA"/>
<path d="M1313.71 862.29C1317.53 862.29 1320.62 859.196 1320.62 855.38C1320.62 851.564 1317.53 848.47 1313.71 848.47C1309.89 848.47 1306.8 851.564 1306.8 855.38C1306.8 859.196 1309.89 862.29 1313.71 862.29Z" fill="#A9C4EA"/>
<path d="M1270.13 662.88C1270.13 662.88 1299.52 602.73 1324.13 613.21C1324.13 613.18 1342.35 649.18 1270.13 662.88Z" fill="#6DD86E"/>
<path d="M1270.58 609.99C1270.58 609.99 1299.97 549.84 1324.58 560.32C1324.58 560.32 1342.81 596.32 1270.58 609.99Z" fill="#6DD86E"/>
<path d="M1269.9 536.17C1269.9 536.17 1296.18 484.17 1318.19 493.25C1318.19 493.25 1334.49 524.36 1269.9 536.17Z" fill="#6DD86E"/>
<path d="M1271 662.62C1271 662.62 1241.61 602.47 1217 612.95C1217 612.95 1198.81 648.95 1271 662.62Z" fill="#6DD86E"/>
<path d="M1270.58 609.76C1270.58 609.76 1241.19 549.61 1216.58 560.09C1216.58 560.09 1198.35 596.09 1270.58 609.76Z" fill="#6DD86E"/>
<path d="M1270.13 558.271C1270.13 558.271 1243.84 506.271 1221.83 515.351C1221.83 515.351 1205.53 546.461 1270.13 558.271Z" fill="#6DD86E"/>
<path d="M844.05 823.64L843.65 824.94L834.94 853.1L860.76 855.84L878.99 823.03L844.05 823.64Z" fill="#ECC8BE"/>
<path d="M834.94 853.101L796.94 869.511C796.94 869.511 774.46 878.021 781.75 886.831L875.02 886.221L860.76 855.881L834.94 853.101Z" fill="black"/>
<path d="M990.33 692.701L911 662.621C911 662.621 853.58 640.071 843.33 704.321L842 828.621L884.38 826.621L891.22 722.141L969.14 769.991L997.85 754.271L990.33 692.701Z" fill="#0F1E49"/>
<path d="M1118.38 771.38L997.85 754.22L892.05 812.7C892.05 812.7 837.05 847.33 875.05 886.22L1065.83 888.04L1064 829.71C1064 829.71 1116 819.38 1118.38 771.38Z" fill="#0F1E49"/>
<path d="M1064 829.71C1064 829.71 1018.43 845.81 993.82 843.38" stroke="#8BDFFF" stroke-miterlimit="10"/>
<path d="M1149.67 887.74L1074.33 825.74L1063.7 832.43L1064.3 860.98C1064.3 860.98 1090.43 863.41 1103.19 886.81L1149.67 887.74Z" fill="black"/>
<path d="M1065.82 888.04L1103.19 886.831C1103.19 886.831 1091.65 861.91 1064.3 861L1065.82 888.04Z" fill="#ECC8BE"/>
<path d="M1000.2 512.55L1004.76 508.29L1003.54 484.6L1031.19 471.88C1031.19 471.88 1034.53 491.93 1038.48 492.23L1045.48 497.09L1026.64 528.99L1008.42 555.42L990.79 531.73L999.3 513.8" fill="#ECC8BE"/>
<path opacity="0.44" d="M1003.74 484.6L1003.9 487.14L1022 505.19C1022 505.19 1038.08 492.56 1037.93 492.36C1033.93 487.21 1032.46 477.61 1032.46 477.61L1003.74 484.6Z" fill="#C1968D"/>
<path d="M984 429.88C984 429.88 973.37 488.52 1007.09 487C1007.09 487 1040.2 486.69 1044.76 463.3C1044.71 463.33 1038.33 367.64 984 429.88Z" fill="#ECC8BE"/>
<path d="M984.45 431.511C984.45 431.511 998.21 434.42 1007.11 416.4C1007.11 416.4 1016.86 422.791 1020.01 437.331C1020.01 437.331 1008.54 472.511 1026.9 480.941C1026.9 480.941 1055.3 488.79 1066.2 466.4C1066.2 466.4 1085.99 441.981 1077.96 420.471C1077.96 420.471 1059.31 363.19 1007.96 391.68C1008 391.68 959.78 401.881 984.45 431.511Z" fill="black"/>
<path d="M949.16 631.331L917.57 645.611C917.57 645.611 909.37 655.031 890.23 636.801L806.08 569.051C806.08 569.051 776.91 554.471 776.3 525.881C776.3 525.881 775.05 503.641 765.97 492.471C761.04 486.391 767.05 485.851 771.14 488.591C774.711 490.958 777.509 494.32 779.19 498.261C785.62 513.961 804.77 556.641 825.52 563.561L897.22 604.261C900.42 605.805 903.988 606.424 907.522 606.05C911.056 605.675 914.414 604.321 917.22 602.141L941.82 590.291L949.16 631.331Z" fill="#ECC8BE"/>
<path d="M1055.29 386.06C1055.29 386.06 1048.73 378.49 1052.45 377.21C1056.17 375.93 1059.45 378.94 1059.45 378.94C1059.58 376.004 1058.96 373.083 1057.65 370.45C1055.55 366.77 1061.2 362.95 1061.2 362.95C1061.2 362.95 1078.93 355.54 1083.32 371.87C1083.32 371.87 1115.17 370.16 1100.32 396.62C1100.32 396.62 1105.64 424.74 1079.16 411.83L1055.29 386.06Z" fill="#0F0F0F"/>
<path d="M1054.6 390.021C1054.6 390.021 1073.95 395.23 1074.02 409.56" stroke="#5998F6" stroke-width="7" stroke-miterlimit="10" stroke-linecap="round"/>
<path d="M968 625.22H968.09L968.02 624.9C968 624.98 968 625.1 968 625.22Z" fill="#34ADD7" stroke="#34ADD7" stroke-miterlimit="10"/>
<path d="M967.77 623.66L968.08 623.53C968.03 610.7 957.64 603.18 949.62 592.53C948.21 591.12 947.8 587.71 948.38 584.06L947.53 585.32L946.92 575.32L921.86 586.26L938.38 616.41L947.49 635.32L968 625.22C968 625.1 968 624.98 968 624.86L967.77 623.66Z" fill="#256F79"/>
<path d="M968.05 624.88C968.05 624.43 968.05 623.99 968.05 623.55L967.74 623.68L968.05 624.88Z" fill="#34ADD7" stroke="#34ADD7" stroke-miterlimit="10"/>
<path d="M1131.82 724.88C1131.82 724.88 1074.41 608.67 1083.29 566.98C1083.29 566.98 1088.08 501.36 1042.29 492.47L1001.29 529.38L999.29 508.88L948.45 584.06C947.87 587.71 948.28 591.12 949.69 592.53C957.69 603.23 968.1 610.75 968.15 623.53L998.49 610.33L968.19 625.18L997.19 751.48L1115.45 772.67C1115.45 772.67 1143.44 769.26 1131.82 724.88Z" fill="#34ADD7" stroke="#34ADD7" stroke-miterlimit="10"/>
<path d="M968.08 623.531C968.08 623.971 968.08 624.411 968.08 624.861L968.15 625.181L998.45 610.331L968.08 623.531Z" fill="#34ADD7" stroke="#34ADD7" stroke-miterlimit="10"/>
<path d="M1000.44 506.771L1002.27 535.48L992.24 526.831L994.06 511.79L1000.44 506.771Z" fill="#256F79"/>
<path d="M1001.27 528.33L1042.28 491.42L1050.03 501.22L1024.96 521.27L999.44 538.13L1001.27 528.33Z" fill="#256F79"/>
<path opacity="0.25" d="M1129.11 145.13H1011C1010.12 145.131 1009.26 145.381 1008.51 145.849C1007.77 146.318 1007.17 146.987 1006.79 147.78L988 186.88L970.55 147.88C970.183 147.058 969.585 146.359 968.829 145.869C968.073 145.379 967.191 145.119 966.29 145.12H950.71C949.471 145.12 948.284 144.628 947.408 143.752C946.532 142.877 946.04 141.689 946.04 140.45V44.0802C946.04 42.8416 946.532 41.6538 947.408 40.778C948.284 39.9022 949.471 39.4102 950.71 39.4102H1129.11C1130.35 39.4102 1131.54 39.9022 1132.41 40.778C1133.29 41.6538 1133.78 42.8416 1133.78 44.0802V140.46C1133.78 141.073 1133.66 141.681 1133.42 142.247C1133.19 142.814 1132.85 143.329 1132.41 143.762C1131.98 144.196 1131.46 144.54 1130.9 144.775C1130.33 145.009 1129.72 145.13 1129.11 145.13Z" fill="black"/>
<path d="M1130.11 143.13H1012C1011.12 143.131 1010.26 143.381 1009.51 143.849C1008.77 144.318 1008.17 144.987 1007.79 145.78L989 184.88L971.55 145.88C971.183 145.058 970.585 144.359 969.829 143.869C969.073 143.379 968.191 143.119 967.29 143.12H951.71C950.471 143.12 949.284 142.628 948.408 141.752C947.532 140.877 947.04 139.689 947.04 138.45V42.0802C947.04 40.8416 947.532 39.6538 948.408 38.778C949.284 37.9022 950.471 37.4102 951.71 37.4102H1130.11C1131.35 37.4102 1132.54 37.9022 1133.41 38.778C1134.29 39.6538 1134.78 40.8416 1134.78 42.0802V138.46C1134.78 139.073 1134.66 139.681 1134.42 140.247C1134.19 140.814 1133.85 141.329 1133.41 141.762C1132.98 142.196 1132.46 142.54 1131.9 142.775C1131.33 143.009 1130.72 143.13 1130.11 143.13Z" fill="#FF0458"/>
<path d="M1008.22 69.1704C1008.9 69.1704 1009.63 69.1704 1010.41 69.2804C1015.16 69.7404 1020.65 74.0904 1021.32 82.4204V85.1904C1020.69 93.1904 1014.68 102.99 997.09 115.32C979.51 102.99 973.49 93.1604 972.87 85.1904V82.4204C973.54 74.0904 979.03 69.7404 983.77 69.2804C984.55 69.2104 985.28 69.1704 985.97 69.1704C991.45 69.1704 994.08 71.5404 997.09 75.1704C1000.09 71.5804 1002.74 69.1704 1008.22 69.1704ZM1008.22 74.4704C1005.07 74.4704 1003.75 75.4704 1001.15 78.5304L997.09 83.3704L993 78.5304C990.4 75.4304 989.09 74.4704 985.94 74.4704C985.42 74.4704 984.86 74.4704 984.26 74.5504C982.07 74.7704 978.66 77.1004 978.14 82.6404V84.9604C978.79 91.9604 985.14 99.9604 997.06 108.79C1009 99.9304 1015.37 91.8804 1016 84.9604V82.6404C1015.48 77.1004 1012.07 74.7704 1009.88 74.5504C1009.28 74.5504 1008.72 74.4704 1008.2 74.4704H1008.22Z" fill="white"/>
<path d="M1045.68 99.8003H1050.18V65.3503H1046.21L1038.68 69.3783L1039.58 72.9293L1045.57 69.6963H1045.68V99.8003ZM1074.23 64.7673C1067.23 64.7673 1062.25 71.1273 1062.25 82.6813C1062.36 94.0763 1066.91 100.383 1073.65 100.383C1081.28 100.383 1085.62 93.9173 1085.62 82.2043C1085.62 71.2333 1081.49 64.7673 1074.23 64.7673ZM1073.96 68.3713C1078.79 68.3713 1080.96 73.9363 1080.96 82.4163C1080.96 91.2143 1078.68 96.7793 1073.91 96.7793C1069.67 96.7793 1066.91 91.6913 1066.91 82.7343C1066.91 73.3533 1069.88 68.3713 1073.96 68.3713ZM1101.4 64.7673C1094.41 64.7673 1089.42 71.1273 1089.42 82.6813C1089.53 94.0763 1094.09 100.383 1100.82 100.383C1108.45 100.383 1112.8 93.9173 1112.8 82.2043C1112.8 71.2333 1108.66 64.7673 1101.4 64.7673ZM1101.14 68.3713C1105.96 68.3713 1108.13 73.9363 1108.13 82.4163C1108.13 91.2143 1105.85 96.7793 1101.08 96.7793C1096.84 96.7793 1094.09 91.6913 1094.09 82.7343C1094.09 73.3533 1097.06 68.3713 1101.14 68.3713Z" fill="white"/>
<path d="M430.93 366.23H391L383.39 383.88L373.65 366.2C352.55 366.2 335.46 350.11 335.46 330.27C335.46 310.43 352.55 294.34 373.65 294.34H430.93C452.03 294.34 469.13 310.43 469.13 330.27C469.13 350.14 452 366.23 430.93 366.23Z" fill="white"/>
<path d="M376.17 334.96C379.981 334.96 383.07 332.055 383.07 328.47C383.07 324.886 379.981 321.98 376.17 321.98C372.359 321.98 369.27 324.886 369.27 328.47C369.27 332.055 372.359 334.96 376.17 334.96Z" fill="#A9C4EA"/>
<path d="M402.29 334.96C406.101 334.96 409.19 332.055 409.19 328.47C409.19 324.886 406.101 321.98 402.29 321.98C398.479 321.98 395.39 324.886 395.39 328.47C395.39 332.055 398.479 334.96 402.29 334.96Z" fill="#A9C4EA"/>
<path d="M428.42 334.96C432.231 334.96 435.32 332.055 435.32 328.47C435.32 324.886 432.231 321.98 428.42 321.98C424.609 321.98 421.52 324.886 421.52 328.47C421.52 332.055 424.609 334.96 428.42 334.96Z" fill="#A9C4EA"/>
<path d="M442.53 798.8V779.8L428.53 789.8L442.53 798.8Z" fill="#F25643"/>
<path d="M440.53 797.8V780.8L428.53 789.75L440.53 797.8Z" fill="#FFD6CA"/>
<path d="M400.53 798.8V779.8L414.53 789.8L400.53 798.8Z" fill="#F25643"/>
<path d="M403.53 796.8V781.8L414.53 789.7L403.53 796.8Z" fill="#FFD6CA"/>
<path d="M434.53 846.8H410.53C407.347 846.8 404.295 845.536 402.045 843.286C399.794 841.035 398.53 837.983 398.53 834.8V811.17C398.53 805.503 400.781 800.067 404.789 796.059C408.797 792.052 414.232 789.8 419.9 789.8H425.16C430.828 789.8 436.263 792.052 440.271 796.059C444.279 800.067 446.53 805.503 446.53 811.17V834.8C446.53 837.983 445.266 841.035 443.015 843.286C440.765 845.536 437.713 846.8 434.53 846.8Z" fill="#FC7750"/>
<path d="M444.3 885.8H342.76C341.903 885.8 341.082 885.46 340.476 884.854C339.87 884.249 339.53 883.427 339.53 882.57V869.72C339.53 859.931 343.419 850.543 350.341 843.621C357.263 836.699 366.651 832.81 376.44 832.81H444.3C445.157 832.81 445.978 833.151 446.584 833.756C447.19 834.362 447.53 835.184 447.53 836.04V882.57C447.53 883.427 447.19 884.249 446.584 884.854C445.978 885.46 445.157 885.8 444.3 885.8Z" fill="#FC7750"/>
<path d="M400.53 838.8H444.53C446.187 838.8 447.53 837.457 447.53 835.8C447.53 834.143 446.187 832.8 444.53 832.8H400.53C398.873 832.8 397.53 834.143 397.53 835.8C397.53 837.457 398.873 838.8 400.53 838.8Z" fill="#F25643"/>
<path d="M422.53 827.8C426.396 827.8 429.53 825.114 429.53 821.8C429.53 818.487 426.396 815.8 422.53 815.8C418.664 815.8 415.53 818.487 415.53 821.8C415.53 825.114 418.664 827.8 422.53 827.8Z" fill="#FFD6CA"/>
<path d="M423 815.52H425.17V813.8H418.96V815.52H421.16V818.36H423V815.52Z" fill="#F46F5F"/>
<path d="M432.53 815.8L451.53 825.8" stroke="#F25643" stroke-width="2" stroke-miterlimit="10" stroke-linecap="round"/>
<path d="M450.53 815.8H432.53" stroke="#F25643" stroke-width="2" stroke-miterlimit="10" stroke-linecap="round"/>
<path d="M451.53 807.8L432.53 815.8" stroke="#F25643" stroke-width="2" stroke-miterlimit="10" stroke-linecap="round"/>
<path d="M411.53 814.8L392.53 824.8" stroke="#F25643" stroke-width="2" stroke-miterlimit="10" stroke-linecap="round"/>
<path d="M393.53 814.8H411.53" stroke="#F25643" stroke-width="2" stroke-miterlimit="10" stroke-linecap="round"/>
<path d="M392.53 806.8L411.53 814.8" stroke="#F25643" stroke-width="2" stroke-miterlimit="10" stroke-linecap="round"/>
<path d="M432.03 887.3H445.03C449.448 887.3 453.03 883.719 453.03 879.3C453.03 874.882 449.448 871.3 445.03 871.3H432.03C427.612 871.3 424.03 874.882 424.03 879.3C424.03 883.719 427.612 887.3 432.03 887.3Z" fill="#FFD6CA"/>
<path d="M340.53 799.8C340.53 799.8 293.53 794.8 294.53 830.8C295.53 866.8 339.53 867.04 339.53 867.04" stroke="#FC7750" stroke-width="10" stroke-miterlimit="10" stroke-linecap="round"/>
<path d="M1189.75 442.141L1175 446.991C1172.39 447.847 1169.54 447.631 1167.09 446.392C1164.64 445.153 1162.78 442.991 1161.92 440.381L1150.6 405.881C1149.74 403.271 1149.96 400.428 1151.2 397.977C1152.44 395.526 1154.6 393.668 1157.21 392.811L1171.98 387.961L1189.75 442.141ZM1203.2 366.881L1196.73 347.191C1195.44 343.275 1192.66 340.03 1188.98 338.169C1185.3 336.309 1181.04 335.986 1177.12 337.271L1172 388.001L1189.77 442.141L1245.27 423.881C1247.65 423.127 1249.68 421.538 1250.98 419.406C1252.29 417.275 1252.78 414.744 1252.36 412.281L1244.61 365.761C1244.23 363.529 1243.14 361.482 1241.49 359.932C1239.84 358.381 1237.73 357.411 1235.48 357.171C1233.98 357.02 1232.47 357.19 1231.05 357.671L1203.2 366.881Z" stroke="#C1DDF2" stroke-width="4" stroke-miterlimit="10"/>
<path d="M195.84 400.4V856.09" stroke="#A9C4EA" stroke-width="8" stroke-miterlimit="10"/>
<path d="M124.7 881.61H265.66V871.89L195.48 848.19L124.39 871.28L124.7 881.61Z" fill="#A9C4EA"/>
<path d="M223.73 403.36V533.23" stroke="#42210B" stroke-miterlimit="10"/>
<path d="M227.99 524.19C227.99 521.589 225.881 519.48 223.28 519.48C220.679 519.48 218.57 521.589 218.57 524.19V542.42C218.57 545.022 220.679 547.13 223.28 547.13C225.881 547.13 227.99 545.022 227.99 542.42V524.19Z" fill="#F9D539"/>
<path d="M251.08 220.851H137.61V419.081H251.08V220.851Z" fill="#D3F8F9" stroke="#42210B" stroke-miterlimit="10"/>
<path d="M459.94 599.25C480.203 599.25 496.63 582.823 496.63 562.56C496.63 542.297 480.203 525.87 459.94 525.87C439.677 525.87 423.25 542.297 423.25 562.56C423.25 582.823 439.677 599.25 459.94 599.25Z" fill="#4678FD"/>
<path d="M447.02 560.581H444.93C442.445 560.581 440.43 562.595 440.43 565.081V578.161C440.43 580.646 442.445 582.661 444.93 582.661H447.02C449.505 582.661 451.52 580.646 451.52 578.161V565.081C451.52 562.595 449.505 560.581 447.02 560.581Z" fill="white"/>
<path d="M479.72 566.37C479.793 565.626 479.586 564.881 479.138 564.281C478.69 563.682 478.035 563.271 477.3 563.13C477.73 563.02 478.132 562.822 478.483 562.55C478.834 562.278 479.125 561.937 479.339 561.549C479.554 561.16 479.687 560.732 479.73 560.291C479.773 559.849 479.725 559.403 479.59 558.98C479.379 558.324 478.963 557.752 478.403 557.349C477.844 556.946 477.17 556.733 476.48 556.74H466.08L468.08 549.82C468.411 548.639 468.579 547.418 468.58 546.19V545.24C468.579 544.719 468.474 544.203 468.271 543.723C468.069 543.243 467.773 542.808 467.401 542.443C467.028 542.078 466.587 541.791 466.103 541.598C465.619 541.406 465.101 541.311 464.58 541.32C463.983 541.346 463.419 541.602 463.007 542.035C462.595 542.468 462.367 543.043 462.37 543.64V546.12C462.371 547.332 461.978 548.511 461.25 549.48L455.33 557.18C454.421 558.362 453.929 559.81 453.93 561.3V577.88C453.93 578.39 454.132 578.878 454.492 579.238C454.852 579.598 455.341 579.8 455.85 579.8H475.71C476.029 579.8 476.344 579.738 476.638 579.615C476.933 579.493 477.2 579.314 477.425 579.088C477.65 578.862 477.828 578.594 477.949 578.3C478.07 578.005 478.131 577.689 478.13 577.37V577.08C478.13 576.569 477.969 576.07 477.669 575.655C477.369 575.24 476.946 574.931 476.46 574.77C477.155 574.701 477.8 574.379 478.273 573.866C478.746 573.352 479.014 572.683 479.026 571.985C479.039 571.287 478.794 570.609 478.34 570.079C477.885 569.549 477.252 569.204 476.56 569.11H476.7C477.452 569.105 478.176 568.822 478.733 568.317C479.29 567.811 479.641 567.118 479.72 566.37Z" fill="white"/>
<path d="M331.51 383.211C347.493 383.211 360.45 370.254 360.45 354.271C360.45 338.287 347.493 325.331 331.51 325.331C315.527 325.331 302.57 338.287 302.57 354.271C302.57 370.254 315.527 383.211 331.51 383.211Z" fill="#4678FD"/>
<path d="M320.5 352.71H320.49C318.077 352.71 316.12 354.667 316.12 357.08V365.75C316.12 368.164 318.077 370.12 320.49 370.12H320.5C322.913 370.12 324.87 368.164 324.87 365.75V357.08C324.87 354.667 322.913 352.71 320.5 352.71Z" fill="white"/>
<path d="M347.1 357.281C347.162 356.693 347 356.103 346.646 355.63C346.292 355.157 345.772 354.836 345.19 354.731C345.804 354.584 346.343 354.216 346.702 353.697C347.061 353.178 347.216 352.545 347.137 351.918C347.058 351.292 346.75 350.717 346.272 350.304C345.795 349.891 345.181 349.669 344.55 349.681H336.35L337.9 344.231C338.167 343.301 338.302 342.338 338.3 341.371V340.621C338.3 340.207 338.217 339.798 338.056 339.417C337.896 339.036 337.66 338.691 337.363 338.403C337.067 338.115 336.715 337.889 336.33 337.739C335.945 337.59 335.533 337.519 335.12 337.531C334.651 337.551 334.209 337.752 333.884 338.091C333.56 338.43 333.38 338.881 333.38 339.351V341.351C333.379 342.306 333.071 343.235 332.5 344.001L327.83 350.071C327.109 351.001 326.719 352.144 326.72 353.321V366.371C326.72 366.774 326.88 367.16 327.165 367.445C327.45 367.73 327.837 367.891 328.24 367.891H343.9C344.407 367.888 344.893 367.685 345.251 367.325C345.609 366.965 345.81 366.478 345.81 365.971V365.741C345.811 365.337 345.683 364.943 345.446 364.616C345.209 364.289 344.874 364.045 344.49 363.921C345.047 363.879 345.568 363.631 345.951 363.225C346.334 362.819 346.552 362.285 346.562 361.727C346.572 361.169 346.373 360.627 346.005 360.208C345.636 359.789 345.125 359.522 344.57 359.461H344.68C345.284 359.468 345.868 359.248 346.316 358.844C346.765 358.44 347.045 357.882 347.1 357.281Z" fill="white"/>
<path d="M492.59 43.7204C504.42 43.7204 514.01 34.1303 514.01 22.3004C514.01 10.4704 504.42 0.880371 492.59 0.880371C480.76 0.880371 471.17 10.4704 471.17 22.3004C471.17 34.1303 480.76 43.7204 492.59 43.7204Z" fill="#4678FD"/>
<path d="M487.69 24.3801C487.69 22.5907 486.239 21.1401 484.45 21.1401C482.661 21.1401 481.21 22.5907 481.21 24.3801V30.7901C481.21 32.5795 482.661 34.0301 484.45 34.0301C486.239 34.0301 487.69 32.5795 487.69 30.7901V24.3801Z" fill="white"/>
<path d="M504.14 24.5205C504.183 24.0864 504.062 23.652 503.801 23.3024C503.54 22.9527 503.158 22.7131 502.73 22.6305C503.186 22.5242 503.586 22.2524 503.854 21.8678C504.121 21.4831 504.235 21.013 504.176 20.5486C504.116 20.0841 503.886 19.6584 503.53 19.3539C503.174 19.0494 502.718 18.8878 502.25 18.9005H496.18L497.33 14.9005C497.529 14.2148 497.63 13.5044 497.63 12.7905V12.2305C497.638 11.9188 497.583 11.6086 497.467 11.3191C497.351 11.0296 497.178 10.7667 496.957 10.5467C496.736 10.3267 496.472 10.1541 496.182 10.0395C495.892 9.92496 495.582 9.87085 495.27 9.88049C494.921 9.90112 494.593 10.0565 494.356 10.314C494.119 10.5714 493.992 10.9107 494 11.2605V12.7005C494.006 13.4216 493.774 14.1245 493.34 14.7005L489.88 19.2005C489.353 19.8892 489.068 20.733 489.07 21.6005V31.2705C489.07 31.5675 489.188 31.8524 489.398 32.0624C489.608 32.2725 489.893 32.3905 490.19 32.3905H501.78C501.973 32.3896 502.164 32.3491 502.341 32.2715C502.517 32.1938 502.676 32.0807 502.808 31.9392C502.939 31.7976 503.04 31.6306 503.104 31.4485C503.168 31.2664 503.194 31.073 503.18 30.8805V30.7005C503.177 30.4001 503.078 30.1085 502.898 29.8677C502.718 29.6269 502.467 29.4493 502.18 29.3605C502.582 29.3128 502.952 29.121 503.223 28.8206C503.494 28.5202 503.647 28.1318 503.653 27.7274C503.659 27.3229 503.518 26.93 503.256 26.6216C502.995 26.3132 502.63 26.1103 502.23 26.0505H502.32C502.758 26.0625 503.185 25.9133 503.521 25.6313C503.856 25.3493 504.077 24.9541 504.14 24.5205Z" fill="white"/>
<path d="M326.61 224.66C347.558 224.66 364.54 207.678 364.54 186.73C364.54 165.782 347.558 148.8 326.61 148.8C305.662 148.8 288.68 165.782 288.68 186.73C288.68 207.678 305.662 224.66 326.61 224.66Z" fill="#FE3957"/>
<path d="M349.22 181.571C348.87 178.586 347.524 175.807 345.4 173.681C344.388 172.619 343.17 171.774 341.822 171.196C340.474 170.619 339.022 170.321 337.555 170.321C336.088 170.321 334.636 170.619 333.288 171.196C331.94 171.774 330.722 172.619 329.71 173.681L326.61 176.881L323.51 173.681C322.498 172.619 321.28 171.774 319.932 171.196C318.584 170.619 317.132 170.321 315.665 170.321C314.198 170.321 312.746 170.619 311.398 171.196C310.05 171.774 308.832 172.619 307.82 173.681C305.696 175.807 304.35 178.586 304 181.571C303.14 188.831 307 198.401 326.61 209.321C346.24 198.401 350.08 188.881 349.22 181.571Z" fill="white"/>
<path d="M540.9 165.43C559.275 165.43 574.17 151.247 574.17 133.75C574.17 116.254 559.275 102.07 540.9 102.07C522.526 102.07 507.63 116.254 507.63 133.75C507.63 151.247 522.526 165.43 540.9 165.43Z" fill="#FE3957"/>
<path d="M560.73 129.43C560.399 126.915 559.217 124.59 557.38 122.84C555.541 121.042 553.072 120.035 550.5 120.035C547.928 120.035 545.459 121.042 543.62 122.84L540.9 125.52L538.18 122.88C536.341 121.082 533.872 120.075 531.3 120.075C528.728 120.075 526.259 121.082 524.42 122.88C522.576 124.625 521.393 126.953 521.07 129.47C520.32 135.54 523.69 143.53 540.89 152.65C558.11 143.49 561.48 135.5 560.73 129.43Z" fill="white"/>
<path d="M381.45 90.6902C389.778 90.6902 396.53 84.261 396.53 76.3302C396.53 68.3994 389.778 61.9702 381.45 61.9702C373.122 61.9702 366.37 68.3994 366.37 76.3302C366.37 84.261 373.122 90.6902 381.45 90.6902Z" fill="#FE3957"/>
<path d="M390.44 74.3702C390.295 73.2247 389.758 72.1647 388.92 71.3702C388.088 70.5519 386.967 70.0933 385.8 70.0933C384.633 70.0933 383.512 70.5519 382.68 71.3702L381.45 72.5802L380.22 71.3702C379.388 70.5519 378.267 70.0933 377.1 70.0933C375.933 70.0933 374.812 70.5519 373.98 71.3702C373.142 72.1647 372.605 73.2247 372.46 74.3702C372.12 77.1202 373.65 80.7502 381.46 84.8802C389.25 80.7502 390.78 77.1202 390.44 74.3702Z" fill="white"/>
<path d="M495.66 275.71C512.654 275.71 526.43 261.934 526.43 244.94C526.43 227.947 512.654 214.17 495.66 214.17C478.666 214.17 464.89 227.947 464.89 244.94C464.89 261.934 478.666 275.71 495.66 275.71Z" fill="#FFD530"/>
<path d="M476.9 241.24C476.552 241.227 476.217 241.101 475.946 240.882C475.675 240.662 475.483 240.36 475.399 240.022C475.314 239.684 475.342 239.327 475.477 239.006C475.613 238.685 475.849 238.416 476.15 238.24L481.28 235.52L476.11 232.88C475.922 232.785 475.754 232.653 475.616 232.492C475.479 232.331 475.375 232.145 475.309 231.944C475.244 231.743 475.218 231.531 475.235 231.32C475.251 231.109 475.309 230.904 475.405 230.715C475.501 230.527 475.633 230.359 475.794 230.222C475.954 230.084 476.14 229.98 476.341 229.915C476.543 229.849 476.754 229.824 476.965 229.84C477.176 229.857 477.382 229.915 477.57 230.01L485.5 234.01C485.76 234.147 485.977 234.352 486.129 234.603C486.281 234.854 486.361 235.142 486.361 235.435C486.361 235.729 486.281 236.017 486.129 236.268C485.977 236.519 485.76 236.724 485.5 236.86L477.63 241.04C477.405 241.161 477.155 241.23 476.9 241.24Z" fill="black"/>
<path d="M514.41 241.24C514.149 241.239 513.893 241.177 513.66 241.06L505.79 236.88C505.527 236.746 505.307 236.542 505.153 236.291C504.999 236.039 504.918 235.75 504.918 235.455C504.918 235.16 504.999 234.871 505.153 234.62C505.307 234.368 505.527 234.164 505.79 234.03L513.72 230.03C513.908 229.914 514.119 229.838 514.338 229.807C514.557 229.776 514.78 229.79 514.994 229.849C515.207 229.908 515.406 230.011 515.578 230.15C515.75 230.289 515.891 230.463 515.993 230.659C516.095 230.855 516.156 231.071 516.171 231.292C516.186 231.513 516.155 231.734 516.081 231.943C516.006 232.151 515.89 232.342 515.738 232.503C515.587 232.665 515.403 232.793 515.2 232.88L510 235.49L515.14 238.21C515.327 238.31 515.492 238.446 515.626 238.609C515.76 238.773 515.86 238.961 515.922 239.164C515.983 239.366 516.004 239.579 515.983 239.789C515.962 240 515.9 240.204 515.8 240.39C515.667 240.644 515.467 240.857 515.222 241.007C514.977 241.157 514.697 241.237 514.41 241.24Z" fill="black"/>
<path d="M474.92 247.18C475.124 252.543 477.398 257.618 481.264 261.34C485.13 265.062 490.288 267.141 495.655 267.141C501.022 267.141 506.18 265.062 510.046 261.34C513.912 257.618 516.186 252.543 516.39 247.18H474.92Z" fill="black"/>
<path d="M495.66 268.17C499.718 268.172 503.702 267.087 507.198 265.028C510.694 262.968 513.575 260.01 515.54 256.46C509.303 253.66 502.537 252.234 495.701 252.281C488.864 252.327 482.118 253.845 475.92 256.73C477.909 260.208 480.783 263.098 484.25 265.108C487.717 267.117 491.653 268.173 495.66 268.17Z" fill="#FE3957"/>
<path d="M308.7 272.71C320.756 272.71 330.53 262.937 330.53 250.88C330.53 238.824 320.756 229.05 308.7 229.05C296.644 229.05 286.87 238.824 286.87 250.88C286.87 262.937 296.644 272.71 308.7 272.71Z" fill="#FFD530"/>
<path d="M295.39 248.27C295.136 248.266 294.891 248.178 294.692 248.019C294.494 247.861 294.353 247.641 294.293 247.394C294.232 247.148 294.255 246.888 294.358 246.656C294.46 246.423 294.637 246.232 294.86 246.11L298.5 244.18L294.83 242.32C294.667 242.276 294.517 242.196 294.389 242.086C294.261 241.976 294.159 241.839 294.09 241.685C294.021 241.532 293.987 241.364 293.991 241.196C293.995 241.027 294.036 240.862 294.111 240.711C294.187 240.56 294.294 240.428 294.427 240.324C294.56 240.22 294.714 240.146 294.878 240.109C295.043 240.072 295.213 240.071 295.378 240.108C295.542 240.144 295.697 240.217 295.83 240.32L301.45 243.18C301.634 243.277 301.789 243.42 301.899 243.596C302.01 243.771 302.072 243.973 302.08 244.18C302.078 244.386 302.021 244.588 301.913 244.765C301.806 244.941 301.653 245.084 301.47 245.18L295.89 248.18C295.732 248.246 295.561 248.277 295.39 248.27Z" fill="black"/>
<path d="M322 248.27C321.812 248.266 321.627 248.218 321.46 248.13L315.88 245.13C315.697 245.034 315.544 244.891 315.437 244.715C315.329 244.539 315.272 244.337 315.27 244.13C315.278 243.923 315.34 243.721 315.451 243.546C315.561 243.37 315.716 243.227 315.9 243.13L321.52 240.27C321.653 240.167 321.808 240.094 321.972 240.058C322.137 240.021 322.307 240.022 322.472 240.059C322.636 240.096 322.79 240.17 322.923 240.274C323.056 240.378 323.163 240.51 323.239 240.661C323.314 240.812 323.355 240.977 323.359 241.146C323.363 241.314 323.329 241.482 323.26 241.636C323.191 241.79 323.089 241.926 322.961 242.036C322.833 242.146 322.683 242.226 322.52 242.27L318.85 244.13L322.49 246.06C322.713 246.182 322.89 246.374 322.992 246.606C323.095 246.838 323.118 247.098 323.057 247.345C322.997 247.591 322.856 247.811 322.658 247.969C322.459 248.128 322.214 248.216 321.96 248.22L322 248.27Z" fill="black"/>
<path d="M294 252.47C294.1 256.304 295.693 259.947 298.44 262.623C301.187 265.299 304.87 266.797 308.705 266.797C312.54 266.797 316.223 265.299 318.97 262.623C321.717 259.947 323.31 256.304 323.41 252.47H294Z" fill="black"/>
<path d="M308.7 267.37C311.578 267.37 314.404 266.599 316.883 265.138C319.363 263.676 321.406 261.578 322.8 259.06C318.378 257.071 313.578 256.058 308.729 256.091C303.88 256.123 299.095 257.201 294.7 259.25C296.11 261.718 298.147 263.77 300.606 265.196C303.065 266.622 305.858 267.372 308.7 267.37Z" fill="#FE3957"/>
<path d="M239.43 103.201C251.486 103.201 261.26 93.4269 261.26 81.3705C261.26 69.3141 251.486 59.5405 239.43 59.5405C227.374 59.5405 217.6 69.3141 217.6 81.3705C217.6 93.4269 227.374 103.201 239.43 103.201Z" fill="#FFD530"/>
<path d="M226.13 78.7502C225.874 78.7527 225.625 78.6691 225.422 78.5127C225.219 78.3563 225.075 78.1362 225.013 77.8879C224.951 77.6397 224.974 77.3776 225.078 77.144C225.183 76.9104 225.363 76.7189 225.59 76.6002L229.23 74.6602L225.57 72.8002C225.362 72.6384 225.216 72.4095 225.158 72.1524C225.099 71.8952 225.132 71.6258 225.25 71.3899C225.367 71.1541 225.564 70.9664 225.804 70.8589C226.045 70.7513 226.316 70.7306 226.57 70.8002L232.2 73.6702C232.379 73.7684 232.529 73.913 232.633 74.089C232.738 74.2649 232.793 74.4657 232.793 74.6702C232.793 74.8747 232.738 75.0754 232.633 75.2514C232.529 75.4273 232.379 75.572 232.2 75.6702L226.62 78.6702C226.465 78.7328 226.297 78.7602 226.13 78.7502Z" fill="black"/>
<path d="M252.73 78.7506C252.545 78.7481 252.363 78.7001 252.2 78.6106L246.61 75.6106C246.429 75.5142 246.277 75.3702 246.171 75.194C246.065 75.0178 246.01 74.8161 246.01 74.6106C246.01 74.4028 246.069 74.1992 246.178 74.0226C246.288 73.846 246.444 73.7034 246.63 73.6106L252.26 70.7406C252.514 70.671 252.785 70.6918 253.026 70.7993C253.266 70.9068 253.463 71.0945 253.58 71.3304C253.698 71.5662 253.731 71.8357 253.672 72.0928C253.614 72.3499 253.468 72.5789 253.26 72.7406L249.6 74.6006L253.24 76.5406C253.467 76.6593 253.647 76.8509 253.752 77.0845C253.856 77.3181 253.879 77.5801 253.817 77.8284C253.755 78.0766 253.611 78.2967 253.408 78.4531C253.205 78.6095 252.956 78.6932 252.7 78.6906L252.73 78.7506Z" fill="black"/>
<path d="M224.72 82.9604C224.86 86.7679 226.472 90.3726 229.215 93.0166C231.958 95.6606 235.62 97.138 239.43 97.138C243.24 97.138 246.902 95.6606 249.645 93.0166C252.388 90.3726 254 86.7679 254.14 82.9604H224.72Z" fill="black"/>
<path d="M239.43 97.8805C242.308 97.8823 245.135 97.1123 247.615 95.6508C250.094 94.1892 252.137 92.0896 253.53 89.5705C249.108 87.581 244.308 86.5681 239.459 86.6009C234.61 86.6337 229.825 87.7113 225.43 89.7605C226.84 92.228 228.878 94.2787 231.337 95.7048C233.796 97.1308 236.588 97.8814 239.43 97.8805Z" fill="#FE3957"/>
</g>
<defs>
<linearGradient id="paint0_linear_401_8134" x1="593.96" y1="304.46" x2="628.19" y2="304.46" gradientUnits="userSpaceOnUse">
<stop stop-color="#C5AE65"/>
<stop offset="1" stop-color="#D6145C"/>
</linearGradient>
<linearGradient id="paint1_linear_401_8134" x1="38166.7" y1="11694.1" x2="41336.1" y2="11694.1" gradientUnits="userSpaceOnUse">
<stop stop-color="#C5AE65"/>
<stop offset="1" stop-color="#D6145C"/>
</linearGradient>
<linearGradient id="paint2_linear_401_8134" x1="42450" y1="11694.1" x2="45619.5" y2="11694.1" gradientUnits="userSpaceOnUse">
<stop stop-color="#C5AE65"/>
<stop offset="1" stop-color="#D6145C"/>
</linearGradient>
<linearGradient id="paint3_linear_401_8134" x1="46618" y1="11694.1" x2="49787.4" y2="11694.1" gradientUnits="userSpaceOnUse">
<stop stop-color="#C5AE65"/>
<stop offset="1" stop-color="#D6145C"/>
</linearGradient>
<linearGradient id="paint4_linear_401_8134" x1="50841" y1="11694.1" x2="54011" y2="11694.1" gradientUnits="userSpaceOnUse">
<stop stop-color="#C5AE65"/>
<stop offset="1" stop-color="#D6145C"/>
</linearGradient>
<clipPath id="clip0_401_8134">
<rect width="1438.03" height="891.92" fill="white" transform="translate(0 0.880371)"/>
</clipPath>
</defs>
</svg>
